# File created by Blade
# Date/Time:  Wed Apr 08 17:00:23 2015
#---------------------------------------------------------
:version 1.10
:name HOM
:units
  mass 1.0
  length 1.000000
  angle deg
:documentation
     Acclaim Skeleton File
:root
   axis xyz
   order TX TY TZ RX RY RZ
   position 0.000000 0.000000 0.000000
   orientation 0 0 0
:bonedata
   begin
      id 1
      name Spine_dum
      direction 0.000000 1.000000 0.000000
      length 5.893853
      axis 0.0 0.0 0.0 xyz
   end
   begin
      id 2
      name LeftUpLeg_dum
      direction 1.000000 0.000000 0.000000
      length 3.697939
      axis 0.0 0.0 0.0 xyz
   end
   begin
      id 3
      name RightUpLeg_dum
      direction -1.000000 0.000000 0.000000
      length 3.697939
      axis 0.0 0.0 0.0 xyz
   end
   begin
      id 4
      name Spine
      direction 0.000000 1.000000 0.000000
      length 0.000000
      axis 0.0 0.0 0.0 xyz
      dof rx ry rz
   end
   begin
      id 5
      name Spine_dum1
      direction 0.000000 1.000000 0.000000
      length 16.447146
      axis 0.0 0.0 0.0 xyz
   end
   begin
      id 6
      name Spine_dum2
      direction 0.000000 1.000000 0.000000
      length 10.900383
      axis 0.0 0.0 0.0 xyz
   end
   begin
      id 7
      name Spine_dum3
      direction 0.000000 1.000000 0.000000
      length 10.900383
      axis 0.0 0.0 0.0 xyz
   end
   begin
      id 8
      name Head
      direction 0.000000 1.000000 0.000000
      length 4.527550
      axis 0.0 0.0 0.0 xyz
      dof rx ry rz
   end
   begin
      id 9
      name LeftShoulder
      direction 1.000000 0.000000 0.000000
      length 8.219464
      axis 0.0 0.0 -90.0 xyz
      dof rx ry rz
   end
   begin
      id 10
      name LeftArm
      direction 1.000000 0.000000 0.000000
      length 11.094937
      axis 0.0 0.0 -90.0 xyz
      dof rx ry rz
   end
   begin
      id 11
      name LeftForeArm
      direction 1.000000 0.000000 0.000000
      length 9.103875
      axis 0.0 0.0 -90.0 xyz
      dof ry rz rx
   end
   begin
      id 12
      name LeftHand
      direction 0.000000 0.000000 0.000000
      length 0.000000
      axis 0.0 0.0 -90.0 xyz
      dof rx ry rz
   end
   begin
      id 13
      name LeftHand_dum1
      direction 0.000000 0.000000 0.000000
      length 0.000000
      axis 0.0 0.0 -90.0 xyz
   end
   begin
      id 14
      name LeftHand_dum2
      direction 1.000000 0.000000 0.000000
      length 3.937000
      axis 0.0 0.0 -90.0 xyz
   end
   begin
      id 15
      name LeftHandThumb1
      direction 0.000000 0.000000 1.000000
      length 3.937000
      axis 0.0 0.0 -90.0 xyz
      dof rx rz ry
   end
   begin
      id 16
      name RightShoulder
      direction -1.000000 0.000000 0.000000
      length 8.219464
      axis 0.0 0.0 90.0 xyz
      dof rx ry rz
   end
   begin
      id 17
      name RightArm
      direction -1.000000 0.000000 0.000000
      length 11.094937
      axis 0.0 0.0 90.0 xyz
      dof rx ry rz
   end
   begin
      id 18
      name RightForeArm
      direction -1.000000 0.000000 0.000000
      length 9.103875
      axis 0.0 0.0 90.0 xyz
      dof ry rz rx
   end
   begin
      id 19
      name RightHand
      direction 0.000000 0.000000 0.000000
      length 0.000000
      axis 0.0 0.0 90.0 xyz
      dof rx ry rz
   end
   begin
      id 20
      name RightHand_dum1
      direction 0.000000 0.000000 0.000000
      length 0.000000
      axis 0.0 0.0 90.0 xyz
   end
   begin
      id 21
      name RightHand_dum2
      direction -1.000000 0.000000 0.000000
      length 3.937000
      axis 0.0 0.0 90.0 xyz
   end
   begin
      id 22
      name RightHandThumb1
      direction 0.000000 0.000000 1.000000
      length 3.937000
      axis 0.0 0.0 90.0 xyz
      dof rx rz ry
   end
   begin
      id 23
      name LeftUpLeg
      direction 0.000000 -1.000000 0.000000
      length 16.181467
      axis 0.0 0.0 0.0 xyz
      dof rx ry rz
   end
   begin
      id 24
      name LeftLeg
      direction 0.000000 -1.000000 0.000000
      length 16.501392
      axis 0.0 0.0 0.0 xyz
      dof rx ry rz
   end
   begin
      id 25
      name LeftFoot
      direction 0.000000 -0.258819 0.965926
      length 6.408245
      axis 15.0 0.0 0.0 xyz
      dof rx ry rz
   end
   begin
      id 26
      name LeftToeBase
      direction 0.000000 0.000000 1.000000
      length 2.952750
      axis 0.0 0.0 0.0 xyz
      dof rx ry rz
   end
   begin
      id 27
      name RightUpLeg
      direction 0.000000 -1.000000 0.000000
      length 16.181467
      axis 0.0 0.0 0.0 xyz
      dof rx ry rz
   end
   begin
      id 28
      name RightLeg
      direction 0.000000 -1.000000 0.000000
      length 16.501392
      axis 0.0 0.0 0.0 xyz
      dof rx ry rz
   end
   begin
      id 29
      name RightFoot
      direction 0.000000 -0.258819 0.965926
      length 6.408245
      axis 15.0 0.0 0.0 xyz
      dof rx ry rz
   end
   begin
      id 30
      name RightToeBase
      direction 0.000000 0.000000 1.000000
      length 2.952750
      axis 0.0 0.0 0.0 xyz
      dof rx ry rz
   end
:hierarchy
   begin
      root Spine_dum LeftUpLeg_dum RightUpLeg_dum
      Spine_dum Spine
      LeftUpLeg_dum LeftUpLeg
      RightUpLeg_dum RightUpLeg
      Spine Spine_dum1 Spine_dum2 Spine_dum3
      Spine_dum1 Head
      Spine_dum2 LeftShoulder
      Spine_dum3 RightShoulder
      LeftShoulder LeftArm
      LeftArm LeftForeArm
      LeftForeArm LeftHand
      LeftHand LeftHand_dum1 LeftHand_dum2
      LeftHand_dum1 LeftHandThumb1
      RightShoulder RightArm
      RightArm RightForeArm
      RightForeArm RightHand
      RightHand RightHand_dum1 RightHand_dum2
      RightHand_dum1 RightHandThumb1
      LeftUpLeg LeftLeg
      LeftLeg LeftFoot
      LeftFoot LeftToeBase
      RightUpLeg RightLeg
      RightLeg RightFoot
      RightFoot RightToeBase
   end

# File created by Blade
# Date/Time:  Wed Apr 08 17:00:17 2015
# Frame Rate: 120.000 fps
#------------------------------------------------------
:FULLY-SPECIFIED
:DEGREES
925
root 1.320287 35.688455 2.697037 -28.012052 -78.823310 14.399365
Spine 8.918711 3.117788 -9.360955
Head 2.148176 -8.350199 -2.455909
LeftShoulder 7.031646 -2.445778 24.877304
LeftArm 95.044915 46.194733 -41.578121
LeftForeArm -44.891055 -0.000000 95.346772
LeftHand -27.031149 -0.000000 14.971779
LeftHandThumb1 -26.253704 0.000000 33.147579
RightShoulder 6.916206 -26.449710 -30.107282
RightArm 74.943635 29.947479 43.871712
RightForeArm -15.464825 -0.000000 13.943697
RightHand 6.616077 -0.000000 8.108700
RightHandThumb1 -24.326973 -0.000000 -32.862282
LeftUpLeg 14.916374 6.473266 5.991929
LeftLeg 11.856283 -0.000000 -0.000000
LeftFoot -13.734671 -2.616580 -11.523089
LeftToeBase 9.831350 -0.000000 -0.000000
RightUpLeg 24.153990 -17.314721 -17.520051
RightLeg 2.086159 -0.000000 -0.000000
RightFoot -12.263855 5.041315 19.865407
RightToeBase 14.576778 -0.000000 -0.000000
926
root 1.323386 35.688305 2.692840 -27.951288 -78.800482 14.347594
Spine 8.938127 3.187782 -9.417028
Head 2.051583 -8.459153 -2.316646
LeftShoulder 7.045609 -2.421960 24.868866
LeftArm 95.123952 46.203466 -41.485054
LeftForeArm -45.095222 -0.000000 95.141112
LeftHand -26.697222 -0.000000 14.498192
LeftHandThumb1 -26.253704 0.000000 33.147579
RightShoulder 7.019387 -26.542332 -30.165768
RightArm 73.761856 29.243345 41.099478
RightForeArm -15.967813 -0.000000 14.931757
RightHand 6.821813 -0.000000 8.611425
RightHandThumb1 -24.326973 -0.000000 -32.862282
LeftUpLeg 14.887953 6.458296 5.997130
LeftLeg 11.871191 -0.000000 -0.000000
LeftFoot -13.727205 -2.624368 -11.507972
LeftToeBase 9.810283 -0.000000 -0.000000
RightUpLeg 24.143539 -17.318378 -17.502429
RightLeg 2.091591 -0.000000 -0.000000
RightFoot -12.278821 5.019640 19.876505
RightToeBase 14.589164 -0.000000 -0.000000
927
root 1.325421 35.687494 2.689369 -27.850965 -78.776598 14.256622
Spine 8.951238 3.237763 -9.477715
Head 1.967337 -8.547363 -2.153157
LeftShoulder 7.056784 -2.433936 24.867474
LeftArm 95.195226 46.245791 -41.438857
LeftForeArm -45.499782 -0.000000 94.870956
LeftHand -26.310120 -0.000000 14.017792
LeftHandThumb1 -26.253704 0.000000 33.147579
RightShoulder 7.096965 -26.639941 -30.214990
RightArm 72.517833 28.422294 38.050241
RightForeArm -16.627616 0.000000 16.001247
RightHand 7.094563 -0.000000 9.349875
RightHandThumb1 -24.326973 -0.000000 -32.862282
LeftUpLeg 14.860243 6.447276 6.009856
LeftLeg 11.883807 -0.000000 -0.000000
LeftFoot -13.728280 -2.639947 -11.485861
LeftToeBase 9.781997 -0.000000 -0.000000
RightUpLeg 24.136493 -17.331651 -17.484261
RightLeg 2.096731 -0.000000 -0.000000
RightFoot -12.292330 5.006606 19.877275
RightToeBase 14.593092 -0.000000 -0.000000
928
root 1.326876 35.687197 2.683987 -27.785218 -78.750829 14.194190
Spine 8.961950 3.344149 -9.529054
Head 1.887961 -8.710013 -2.008304
LeftShoulder 7.133020 -2.476529 24.856930
LeftArm 95.213575 46.283039 -41.412652
LeftForeArm -45.905357 -0.000000 94.647567
LeftHand -25.925921 -0.000000 13.496568
LeftHandThumb1 -26.253704 0.000000 33.147579
RightShoulder 7.149127 -26.751730 -30.291063
RightArm 71.370902 27.560146 35.112234
RightForeArm -17.242054 0.000000 17.038377
RightHand 7.537966 0.000000 9.674601
RightHandThumb1 -24.326973 -0.000000 -32.862282
LeftUpLeg 14.836194 6.434228 6.021950
LeftLeg 11.900896 -0.000000 -0.000000
LeftFoot -13.709294 -2.654338 -11.473901
LeftToeBase 9.727786 -0.000000 -0.000000
RightUpLeg 24.129160 -17.330406 -17.462163
RightLeg 2.111608 -0.000000 -0.000000
RightFoot -12.318802 4.985792 19.906378
RightToeBase 14.602845 -0.000000 -0.000000
